<?xml version="1.0" encoding="utf-8"?>
<!-- Generator: Adobe Illustrator 21.1.0, SVG Export Plug-In . SVG Version: 6.00 Build 0)  -->
<svg version="1.1" id="Layer_1" xmlns="http://www.w3.org/2000/svg" xmlns:xlink="http://www.w3.org/1999/xlink" x="0px" y="0px"
	 viewBox="0 0 32 32" style="enable-background:new 0 0 32 32;" xml:space="preserve">
<style type="text/css">
	.Green{fill:#039C23;}
	.Black{fill:#727272;}
	.Red{fill:#D11C1C;}
	.Yellow{fill:#FFB115;}
	.Blue{fill:#1177D7;}
	.White{fill:#FFFFFF;}
	.st0{opacity:0.5;}
	.st1{opacity:0.75;}
</style>
<g id="ChangeChartSeriesType">
	<path class="Black" d="M10,30H4v-8h6V30z M18,18h-6v12h6V18z M26,14h-6v16h6V14z"/>
		<path class="Green" d="M2.1,16h2.2l0.6-2.3h3.2L8.8,16H11L7.8,6H5.4L2.1,16z M6.4,8.7c0.1-0.3,0.1-0.6,0.1-0.9h0.1
		c0,0.3,0.1,0.6,0.1,0.9l1,3.3H5.4L6.4,8.7z M17.5,10.6c0.6-0.2,1.1-0.5,1.5-0.9c0.4-0.4,0.6-0.9,0.6-1.4c0-0.7-0.3-1.3-0.9-1.7
		C18.1,6.2,17.1,6,15.9,6H12v9.9V16h4c1.2,0,2.2-0.2,2.9-0.8C19.7,14.6,20,14,20,13c0-0.6-0.2-1.2-0.7-1.6
		C18.9,11,18.3,10.7,17.5,10.6z M14.4,7.7h0.9c1.1,0,1.7,0.4,1.7,1.1c0,0.4-0.1,0.7-0.4,0.9C16.4,9.9,16,10,15.5,10h-1.1V7.7z
		 M17,13.8c-0.3,0.2-0.8,0.4-1.3,0.4h-1.3v-2.6h1.3c0.5,0,0.9,0.1,1.3,0.3c0.3,0.2,0.5,0.6,0.5,0.9C17.5,13.3,17.4,13.6,17,13.8z"/>
</g>
</svg>
